<svg
    viewBox="0 0 270 80"                    
    xmlns="http://www.w3.org/2000/svg"
    style="width:50%; max-width:260px; height:auto;"
    class="nav-logo"
>
    <rect x="8" y="64" width="8" height="8" rx="4" fill="black" />
    <rect x="20" y="58" width="8" height="14" rx="4" fill="black" />
    <rect x="32" y="50" width="8" height="22" rx="4" fill="black" />
    <rect x="44" y="40" width="8" height="32" rx="4" fill="black" />
    <rect x="56" y="32" width="8" height="40" rx="4" fill="black" />
    <rect x="68" y="40" width="8" height="32" rx="4" fill="black" />
    <rect x="80" y="50" width="8" height="22" rx="4" fill="black" />
    <rect x="92" y="58" width="8" height="14" rx="4" fill="black" />
    <rect x="104" y="64" width="8" height="8" rx="4" fill="black" />

    <rect x="134" y="66" width="8" height="6" rx="4" fill="black" />
    <rect x="146" y="61" width="8" height="11" rx="4" fill="black" />
    <rect x="158" y="54" width="8" height="18" rx="4" fill="black" />
    <rect x="170" y="44" width="8" height="28" rx="4" fill="black" />
    <rect x="182" y="36" width="8" height="36" rx="4" fill="black" />
    <rect x="194" y="28" width="8" height="44" rx="4" fill="black" />
    <rect x="206" y="36" width="8" height="36" rx="4" fill="black" />
    <rect x="218" y="44" width="8" height="28" rx="4" fill="black" />
    <rect x="230" y="54" width="8" height="18" rx="4" fill="black" />
    <rect x="242" y="61" width="8" height="11" rx="4" fill="black" />
    <rect x="254" y="66" width="8" height="6" rx="4" fill="black" />
</svg>